<svg width="100" height="100" viewBox="0 0 100 100" fill="none" xmlns="http://www.w3.org/2000/svg">
<path d="M15.1697 38.4825C15.9128 38.6747 18.01 39.4995 18.6804 39.0286C19.1249 38.7163 19.2372 37.5984 19.4024 37.1025C19.9303 35.5174 20.4979 33.9228 21.2124 32.4107C23.251 28.0964 26.2142 23.9871 29.6641 20.6934C36.2284 14.4263 44.9036 10.3843 54.0922 10.6094C57.539 10.6938 60.688 11.5718 64.0298 12.2633L65.272 8.95142C53.0815 5.49277 40.1455 7.31932 30.0762 15.3612C26.9499 17.8579 24.1859 20.883 21.8539 24.1309C18.6848 28.5448 16.8099 33.3539 15.1697 38.4825ZM68.7226 15.2992L74.6576 21.095L77.9701 24.1309C78.7221 21.4619 79.2123 18.6268 79.2123 15.8512C79.2123 15.3057 79.5259 13.7337 79.2031 13.318C78.8537 12.8682 77.0916 13.3148 76.5899 13.3853C73.9729 13.753 71.153 14.2234 68.7226 15.2992ZM25.6594 42.4843H25.7974L28.972 39.3104C29.4457 38.8368 29.9793 38.0869 30.6282 37.8554C31.1615 37.6652 31.8838 37.9264 32.4225 38.0099C33.8014 38.2237 35.1859 38.3813 36.5632 38.6094C37.8402 38.8208 39.5546 38.8424 40.7039 39.4677C41.4972 39.8993 42.1033 40.7328 42.7619 41.3389C44.6614 43.0872 46.4071 44.9914 48.2952 46.7498C51.0478 49.3134 54.4319 51.9197 56.7146 54.9039H57.1287L59.199 52.696C59.834 55.9698 60.6016 59.2169 61.2157 62.4937C61.4297 63.6356 62.1489 65.3499 61.9293 66.4955C61.7007 67.6882 59.8857 68.9904 59.061 69.8069C58.7738 70.0912 58.1419 70.5007 58.084 70.9328C57.985 71.6714 60.071 73.1631 60.5792 73.6713H60.7173L67.6184 66.6335L70.5125 63.7356L70.5189 62.0797L70.3843 58.0778L70.1422 47.4522L70.0195 44.6922L68.3085 42.4843C72.372 40.4606 75.1418 35.2153 76.3332 31.0307C76.6523 29.9102 77.476 27.8998 77.0586 26.7528C76.7841 25.9985 75.9009 25.374 75.3477 24.8209C74.0347 23.5082 72.6567 22.2679 71.345 20.957C70.2138 19.8264 69.0489 18.7433 67.8945 17.6397C67.4354 17.2008 66.9081 16.4279 66.2382 16.3234C65.327 16.1813 63.87 17.0961 63.0636 17.4769C59.9806 18.9329 57.0772 20.8497 54.8222 23.4409C54.077 24.2973 53.2487 26.2063 52.2689 26.7219C51.1751 27.2976 49.103 26.9575 47.8811 27.0412L38.3575 27.7065C37.0607 27.7957 35.148 27.633 33.9408 28.0781C33.128 28.3777 32.5787 29.3249 32.003 29.9267C30.6798 31.3103 29.355 32.7111 28.0057 34.0666C26.7142 35.3641 25.4506 36.6958 24.2398 38.0685C23.9005 38.4531 23.0655 39.0249 23.0655 39.5864C23.0655 40.4832 25.0521 41.8771 25.6594 42.4843ZM71.207 35.4466V35.5845C70.0321 36.7593 68.9319 37.9978 67.7564 39.1724C67.4218 39.5069 66.9023 40.2479 66.3762 40.2479C65.4648 40.2479 63.8598 38.1197 63.1962 37.4931C60.1775 34.6421 57.3046 31.6206 54.3682 28.6848C54.8859 27.9499 55.5456 27.2658 56.1679 26.6148C56.69 26.0688 57.1974 25.5188 57.7042 24.9589C58.0427 24.5849 58.5336 23.9058 59.0486 23.7806C59.6571 23.6327 61.0364 25.2847 61.2532 25.7869C61.4857 26.3256 61.2407 27.134 61.2817 27.7188C61.3768 29.0764 62.0214 30.3638 63.0657 31.2426C64.1047 32.1169 65.3104 32.6104 66.6522 32.7847C67.2351 32.8604 67.8921 32.7186 68.4465 32.943C69.5128 33.3746 70.4084 34.6481 71.207 35.4466ZM66.5142 24.1833C70.1604 23.4351 71.5772 29.0028 67.8945 29.8537C64.2438 30.6972 62.854 24.9344 66.5142 24.1833ZM84.7333 24.1309C84.1235 24.7406 82.6555 25.7347 82.5085 26.6148C82.3734 27.4236 83.6671 28.8387 84.0707 29.5127C85.3668 31.6769 86.2647 34.002 86.9802 36.4125C89.1621 43.7641 89.1623 52.0335 86.7115 59.3198C83.3043 69.4494 75.496 78.0686 65.41 81.8715C63.3865 82.6345 61.3199 83.1966 59.199 83.607C58.1594 83.8081 56.9253 84.1093 55.8844 83.774C55.4786 83.6433 54.6519 83.2973 54.6519 82.7755C54.6519 82.2593 55.4953 81.789 55.776 81.397C56.6662 80.1539 56.224 78.3027 54.6442 77.8882C52.8441 77.4158 51.8999 78.899 50.7796 80.0191L43.4644 87.3329C42.5811 88.2149 40.8938 89.3544 40.645 90.6447C40.3667 92.0881 42.1436 92.9658 43.3243 92.4195C45.2499 91.5287 46.199 88.8279 48.1572 88.1061C48.8786 87.8401 49.8816 88.0394 50.6416 88.0208C52.1091 87.9849 53.5925 87.8372 55.0583 87.7345C58.8981 87.4654 62.7673 86.6365 66.3762 85.3069C84.8339 78.5065 94.7375 58.9756 91.5535 40.0004C90.8732 35.9464 89.5155 32.042 87.6015 28.4088C86.8433 26.9696 86.0135 25.173 84.7333 24.1309ZM44.5686 30.3407L43.3994 32.5239L39.8758 32.8246L32.4225 33.3766C32.9251 32.5074 33.8557 31.353 34.7689 30.8965C35.5393 30.5114 36.69 30.8112 37.5294 30.7313C39.8654 30.509 42.2192 30.3407 44.5686 30.3407ZM54.7768 36.5979C60.5835 36.0311 61.6476 45.2913 55.8865 45.9103C54.9833 46.0073 53.9641 45.9877 53.126 45.6097C48.7155 43.6201 50.1506 37.0495 54.7768 36.5979ZM39.8758 44.9682V45.1062C42.8429 48.0727 45.8786 50.9698 48.8473 53.9379C50.2392 55.3296 51.8882 57.5193 53.6781 58.3538L55.1963 56.6979C54.4118 55.5843 53.2574 54.7589 52.2979 53.8C50.0185 51.5219 47.6759 49.3169 45.3967 47.0382C44.4998 46.1415 42.9262 43.949 41.6701 43.636C41.0295 43.4764 40.2701 44.574 39.8758 44.9682ZM35.459 49.5221V49.6601C35.8981 50.0991 37.2561 51.0456 37.1662 51.73C36.9982 53.0098 34.9234 53.4837 34.7845 54.9039C34.657 56.2069 35.91 57.05 37.1153 56.5955C38.1595 56.2018 39.2502 54.9639 39.8758 54.0759H40.0138C40.4245 54.6589 41.8004 55.5565 41.8004 56.2839C41.8004 57.6588 39.1508 58.4744 38.9699 60.0097C38.8225 61.2609 40.2969 62.1185 41.394 61.7013C42.5341 61.2677 43.8795 59.6078 44.5686 58.6298H44.7066C44.9972 59.0389 45.9411 59.6434 45.9411 60.1532C45.9411 61.2052 43.9153 62.1213 43.5615 63.1836C43.2107 64.2371 44.1856 65.3064 45.2587 65.2215C45.9657 65.1656 46.5647 64.6261 47.0401 64.1462C47.643 63.5376 48.1442 62.8556 48.8473 62.3557C49.6498 63.9475 52.2908 60.9309 51.9181 60.1477C51.2411 58.7251 49.282 57.4918 48.1572 56.4164C46.2314 54.5754 44.4182 52.6173 42.4988 50.7696C41.1584 49.4793 39.5728 48.2912 38.4956 46.7622C37.2563 47.1099 36.2787 48.584 35.459 49.5221ZM27.0396 49.4578C26.1158 49.6778 25.5507 50.5049 24.9319 51.1545C23.8498 52.2905 22.7095 53.3616 21.6313 54.5023C18.9688 57.319 16.1057 60.0433 13.2822 62.6982C11.6948 64.1908 9.75486 65.682 8.48556 67.4615C7.5519 68.7704 8.51442 70.3087 10.0628 70.2133C11.9268 70.0985 14.0709 67.0421 15.3077 65.8056C18.0253 63.0885 20.7391 60.2654 23.5891 57.6872C25.3615 56.0838 27.7627 54.2741 29.0756 52.2695C30.0074 50.8468 28.6583 49.0723 27.0396 49.4578ZM67.6184 49.5221L67.6204 58.3538L67.6737 62.2177L65.6861 64.4256C65.6861 61.7852 65.7162 59.0572 65.5357 56.4219C65.4429 55.0674 65.0132 53.032 65.4933 51.73C65.8064 50.881 66.8986 50.0291 67.6184 49.5221ZM12.5472 54.015C11.1857 54.3655 8.49529 57.0158 8.08268 58.3538C7.59419 59.9378 9.37172 61.0115 10.7529 60.64C12.0734 60.2848 14.6873 57.6934 15.0375 56.4219C15.436 54.975 13.9512 53.6536 12.5472 54.015ZM27.4537 60.7753C26.6458 60.9505 26.0781 61.6612 25.5214 62.2177L22.0708 65.6676C19.1565 68.5813 16.2244 71.4852 13.2497 74.3373C11.633 75.8874 9.64797 77.375 8.32837 79.1911C7.41672 80.4458 8.60943 82.0479 10.0628 81.9076C10.8503 81.8315 11.472 81.0914 11.9951 80.571L15.3077 77.2592C18.1174 74.4512 20.9529 71.6186 23.8397 68.8864C25.5966 67.2235 27.7601 65.5728 29.169 63.5976C30.0696 62.335 29.0847 60.4217 27.4537 60.7753ZM36.4252 62.9847C35.4295 63.1043 34.7405 64.04 34.0788 64.7016C32.408 66.3721 30.633 67.9917 29.0748 69.768C24.0227 75.5275 17.968 80.5398 12.5472 85.9529C11.1916 87.3066 9.25096 88.5692 8.2699 90.2308C7.56285 91.4282 8.71036 92.6377 9.92479 92.6997C11.012 92.7552 11.7104 91.7496 12.4092 91.0593C14.0513 89.437 15.7433 87.8633 17.378 86.2289C22.3008 81.3071 27.3608 76.5241 32.2845 71.6014C34.1231 69.7632 36.2401 68.0685 37.914 66.0816C38.9648 64.8341 38.239 62.7669 36.4252 62.9847ZM50.7796 71.0138C48.8744 71.7408 47.1748 74.468 45.6707 75.8559C42.2802 78.9844 38.9978 82.2768 35.7351 85.5389C34.2521 87.0216 32.3416 88.3821 31.1213 90.0928C30.1593 91.4415 31.4744 92.9485 32.9746 92.6831C33.7765 92.5412 34.4863 91.7387 35.045 91.1947C36.1361 90.1323 37.2428 89.0733 38.3575 88.0352C41.9021 84.734 45.4211 81.3747 48.8473 77.9492C50.1675 76.6292 52.1716 75.2726 53.1247 73.6713C54.0008 72.1995 52.3421 70.4177 50.7796 71.0138ZM39.0476 71.8416C37.1999 71.8691 35.0259 75.0704 33.8028 76.2932C29.2463 80.8487 24.2514 85.1018 19.886 89.8297C18.8651 90.9352 19.1885 92.5013 20.8286 92.6886C22.8523 92.9197 24.9438 89.8363 26.2115 88.5749C30.7352 84.074 35.8619 79.9865 40.0702 75.1838C41.1408 73.9621 41.2081 71.8094 39.0476 71.8416Z" fill="url(#paint0_linear_800_119)"/>
<defs>
<linearGradient id="paint0_linear_800_119" x1="76.1429" y1="16.1423" x2="1.14286" y2="79.2137" gradientUnits="userSpaceOnUse">
<stop stop-color="#1B4ADD" stop-opacity="0.69"/>
<stop offset="0.280973" stop-color="#1495F8" stop-opacity="0.8128"/>
<stop offset="0.377263" stop-color="#12AAFF" stop-opacity="0.76"/>
<stop offset="0.530377" stop-color="#1589F3" stop-opacity="0.602322"/>
<stop offset="0.577173" stop-color="#1683F1" stop-opacity="0.57"/>
<stop offset="0.758261" stop-color="#FF7700" stop-opacity="0.78"/>
<stop offset="0.846754" stop-color="#E37D1E" stop-opacity="0.47"/>
<stop offset="0.95753" stop-color="#FFB13E" stop-opacity="0.16"/>
</linearGradient>
</defs>
</svg>
